<mxfile host="app.diagrams.net" modified="2023-08-08T06:33:35.029Z" agent="Mozilla/5.0 (Windows NT 10.0; Win64; x64) AppleWebKit/537.36 (KHTML, like Gecko) Chrome/115.0.0.0 Safari/537.36" etag="SmoiNiDxSHMNpE4OxiBP" version="21.6.6" type="device">
  <diagram name="Page-1" id="2GMgKDfi_6KGKrkvNdor">
    <mxGraphModel dx="819" dy="426" grid="1" gridSize="10" guides="1" tooltips="1" connect="1" arrows="1" fold="1" page="1" pageScale="1" pageWidth="827" pageHeight="1169" math="0" shadow="0">
      <root>
        <mxCell id="0" />
        <mxCell id="1" parent="0" />
        <mxCell id="wHS9wgQpFR8GAavV_z1J-1" value="" style="shape=mxgraph.signs.transportation.airplane_1;html=1;pointerEvents=1;fillColor=#000000;strokeColor=none;verticalLabelPosition=bottom;verticalAlign=top;align=center;" parent="1" vertex="1">
          <mxGeometry x="240" y="340" width="198" height="70" as="geometry" />
        </mxCell>
        <mxCell id="wHS9wgQpFR8GAavV_z1J-18" value="" style="shape=flexArrow;endArrow=classic;html=1;rounded=0;" parent="1" edge="1">
          <mxGeometry width="50" height="50" relative="1" as="geometry">
            <mxPoint x="340" y="320" as="sourcePoint" />
            <mxPoint x="340" y="340" as="targetPoint" />
          </mxGeometry>
        </mxCell>
        <mxCell id="wHS9wgQpFR8GAavV_z1J-31" value="" style="group" parent="1" vertex="1" connectable="0">
          <mxGeometry x="235" y="190" width="335" height="120" as="geometry" />
        </mxCell>
        <mxCell id="wHS9wgQpFR8GAavV_z1J-17" value="" style="group" parent="wHS9wgQpFR8GAavV_z1J-31" vertex="1" connectable="0">
          <mxGeometry x="75" width="260" height="120" as="geometry" />
        </mxCell>
        <mxCell id="wHS9wgQpFR8GAavV_z1J-30" value="" style="group" parent="wHS9wgQpFR8GAavV_z1J-17" vertex="1" connectable="0">
          <mxGeometry width="260" height="120" as="geometry" />
        </mxCell>
        <mxCell id="wHS9wgQpFR8GAavV_z1J-2" value="PROJET&lt;br&gt;BOITE NOIRE" style="whiteSpace=wrap;html=1;aspect=fixed;strokeWidth=3;" parent="wHS9wgQpFR8GAavV_z1J-30" vertex="1">
          <mxGeometry y="60" width="60" height="60" as="geometry" />
        </mxCell>
        <mxCell id="wHS9wgQpFR8GAavV_z1J-3" value="" style="verticalLabelPosition=bottom;shadow=0;dashed=0;align=center;html=1;verticalAlign=top;shape=mxgraph.electrical.radio.aerial_-_antenna_2;" parent="wHS9wgQpFR8GAavV_z1J-30" vertex="1">
          <mxGeometry x="18.149999999999977" y="30" width="23.7" height="30" as="geometry" />
        </mxCell>
        <mxCell id="wHS9wgQpFR8GAavV_z1J-4" value="LOCALISATION" style="text;html=1;strokeColor=none;fillColor=none;align=center;verticalAlign=middle;whiteSpace=wrap;rounded=0;" parent="wHS9wgQpFR8GAavV_z1J-30" vertex="1">
          <mxGeometry width="60" height="30" as="geometry" />
        </mxCell>
        <mxCell id="wHS9wgQpFR8GAavV_z1J-13" value="" style="pointerEvents=1;shadow=0;dashed=0;html=1;strokeColor=none;fillColor=#000000;labelPosition=center;verticalLabelPosition=bottom;verticalAlign=top;align=center;outlineConnect=0;shape=mxgraph.veeam.cpu;" parent="wHS9wgQpFR8GAavV_z1J-30" vertex="1">
          <mxGeometry x="80" y="70" width="40" height="40" as="geometry" />
        </mxCell>
        <mxCell id="wHS9wgQpFR8GAavV_z1J-15" value="" style="rounded=0;whiteSpace=wrap;html=1;fillColor=none;dashed=1;" parent="wHS9wgQpFR8GAavV_z1J-30" vertex="1">
          <mxGeometry x="60" y="60" width="200" height="60" as="geometry" />
        </mxCell>
        <mxCell id="wHS9wgQpFR8GAavV_z1J-16" value="Centrale inertielle :&lt;br&gt;- Accélération 3 axes.&lt;br&gt;- Gyroscope 3 axes.&amp;nbsp;" style="text;html=1;strokeColor=none;fillColor=none;align=left;verticalAlign=middle;whiteSpace=wrap;rounded=0;" parent="wHS9wgQpFR8GAavV_z1J-30" vertex="1">
          <mxGeometry x="128" y="70" width="132" height="30" as="geometry" />
        </mxCell>
        <mxCell id="wHS9wgQpFR8GAavV_z1J-37" value="" style="shape=image;html=1;verticalAlign=top;verticalLabelPosition=bottom;labelBackgroundColor=#ffffff;imageAspect=0;aspect=fixed;image=https://cdn4.iconfinder.com/data/icons/48-bubbles/48/38.Location-Pin-128.png" parent="wHS9wgQpFR8GAavV_z1J-30" vertex="1">
          <mxGeometry x="80" y="6.5" width="17" height="17" as="geometry" />
        </mxCell>
        <mxCell id="wHS9wgQpFR8GAavV_z1J-25" style="edgeStyle=orthogonalEdgeStyle;rounded=0;orthogonalLoop=1;jettySize=auto;html=1;exitX=0;exitY=0.5;exitDx=0;exitDy=0;exitPerimeter=0;entryX=0;entryY=0.75;entryDx=0;entryDy=0;endArrow=none;endFill=0;" parent="wHS9wgQpFR8GAavV_z1J-31" source="wHS9wgQpFR8GAavV_z1J-23" target="wHS9wgQpFR8GAavV_z1J-2" edge="1">
          <mxGeometry relative="1" as="geometry" />
        </mxCell>
        <mxCell id="wHS9wgQpFR8GAavV_z1J-28" style="edgeStyle=orthogonalEdgeStyle;rounded=0;orthogonalLoop=1;jettySize=auto;html=1;exitX=1;exitY=0.5;exitDx=0;exitDy=0;exitPerimeter=0;entryX=0;entryY=0.25;entryDx=0;entryDy=0;endArrow=none;endFill=0;" parent="wHS9wgQpFR8GAavV_z1J-31" source="wHS9wgQpFR8GAavV_z1J-23" target="wHS9wgQpFR8GAavV_z1J-2" edge="1">
          <mxGeometry relative="1" as="geometry" />
        </mxCell>
        <mxCell id="wHS9wgQpFR8GAavV_z1J-23" value="" style="verticalLabelPosition=bottom;shadow=0;dashed=0;align=center;fillColor=strokeColor;html=1;verticalAlign=top;strokeWidth=1;shape=mxgraph.electrical.miscellaneous.monocell_battery;rotation=-90;" parent="wHS9wgQpFR8GAavV_z1J-31" vertex="1">
          <mxGeometry x="19" y="70" width="43.88" height="31.34" as="geometry" />
        </mxCell>
        <mxCell id="wHS9wgQpFR8GAavV_z1J-29" value="Accu 3.3V" style="text;html=1;strokeColor=none;fillColor=none;align=center;verticalAlign=middle;whiteSpace=wrap;rounded=0;rotation=90;" parent="wHS9wgQpFR8GAavV_z1J-31" vertex="1">
          <mxGeometry x="-15" y="71.33999999999997" width="60" height="30" as="geometry" />
        </mxCell>
        <mxCell id="gLacN28UQKWFJu7uzQQ_-1" value="" style="group" vertex="1" connectable="0" parent="1">
          <mxGeometry x="310.00396262411806" y="40" width="274.97603737588196" height="155.76585690444045" as="geometry" />
        </mxCell>
        <mxCell id="wHS9wgQpFR8GAavV_z1J-12" value="" style="fontColor=#0066CC;verticalAlign=top;verticalLabelPosition=bottom;labelPosition=center;align=center;html=1;outlineConnect=0;fillColor=#CCCCCC;strokeColor=#050505;gradientColor=none;gradientDirection=north;strokeWidth=2;shape=mxgraph.networks.satellite;" parent="gLacN28UQKWFJu7uzQQ_-1" vertex="1">
          <mxGeometry x="48.97603737588196" width="100" height="100" as="geometry" />
        </mxCell>
        <mxCell id="wHS9wgQpFR8GAavV_z1J-20" value="GPS/Galileo/BeiDou/GLONASS" style="text;html=1;strokeColor=none;fillColor=none;align=center;verticalAlign=middle;whiteSpace=wrap;rounded=0;" parent="gLacN28UQKWFJu7uzQQ_-1" vertex="1">
          <mxGeometry x="84.97603737588196" width="190" height="30" as="geometry" />
        </mxCell>
        <mxCell id="wHS9wgQpFR8GAavV_z1J-38" value="" style="whiteSpace=wrap;html=1;aspect=fixed;strokeColor=none;" parent="gLacN28UQKWFJu7uzQQ_-1" vertex="1">
          <mxGeometry x="39.97603737588196" y="70" width="25" height="25" as="geometry" />
        </mxCell>
        <mxCell id="wHS9wgQpFR8GAavV_z1J-39" value="" style="whiteSpace=wrap;html=1;aspect=fixed;strokeColor=none;" parent="gLacN28UQKWFJu7uzQQ_-1" vertex="1">
          <mxGeometry x="54.97603737588196" y="84" width="18" height="18" as="geometry" />
        </mxCell>
        <mxCell id="wHS9wgQpFR8GAavV_z1J-40" value="" style="whiteSpace=wrap;html=1;aspect=fixed;strokeColor=none;rotation=-45;" parent="gLacN28UQKWFJu7uzQQ_-1" vertex="1">
          <mxGeometry x="45.97603737588196" y="76" width="18" height="18" as="geometry" />
        </mxCell>
        <mxCell id="wHS9wgQpFR8GAavV_z1J-32" value="" style="html=1;verticalLabelPosition=bottom;align=center;labelBackgroundColor=#ffffff;verticalAlign=top;strokeWidth=2;strokeColor=#000B14;shadow=0;dashed=0;shape=mxgraph.ios7.icons.wifi;pointerEvents=1;rotation=-145;fillColor=#000000;" parent="gLacN28UQKWFJu7uzQQ_-1" vertex="1">
          <mxGeometry x="8.976037375881958" y="86" width="72" height="54" as="geometry" />
        </mxCell>
      </root>
    </mxGraphModel>
  </diagram>
</mxfile>
